<svg xmlns="http://www.w3.org/2000/svg" viewBox="0 0 500 500"><g id="freepik--background-complete--inject-2"><rect y="382.4" width="500" height="0.25" style="fill:#ebebeb"></rect><rect x="416.78" y="398.49" width="33.12" height="0.25" style="fill:#ebebeb"></rect><rect x="322.53" y="401.21" width="8.69" height="0.25" style="fill:#ebebeb"></rect><rect x="396.59" y="389.21" width="19.19" height="0.25" style="fill:#ebebeb"></rect><rect x="52.46" y="390.89" width="43.19" height="0.25" style="fill:#ebebeb"></rect><rect x="104.56" y="390.89" width="6.33" height="0.25" style="fill:#ebebeb"></rect><rect x="131.47" y="395.11" width="93.68" height="0.25" style="fill:#ebebeb"></rect><path d="M237,337.8H43.91a5.71,5.71,0,0,1-5.7-5.71V60.66A5.71,5.71,0,0,1,43.91,55H237a5.71,5.71,0,0,1,5.71,5.71V332.09A5.71,5.71,0,0,1,237,337.8ZM43.91,55.2a5.46,5.46,0,0,0-5.45,5.46V332.09a5.46,5.46,0,0,0,5.45,5.46H237a5.47,5.47,0,0,0,5.46-5.46V60.66A5.47,5.47,0,0,0,237,55.2Z" style="fill:#ebebeb"></path><path d="M453.31,337.8H260.21a5.72,5.72,0,0,1-5.71-5.71V60.66A5.72,5.72,0,0,1,260.21,55h193.1A5.71,5.71,0,0,1,459,60.66V332.09A5.71,5.71,0,0,1,453.31,337.8ZM260.21,55.2a5.47,5.47,0,0,0-5.46,5.46V332.09a5.47,5.47,0,0,0,5.46,5.46h193.1a5.47,5.47,0,0,0,5.46-5.46V60.66a5.47,5.47,0,0,0-5.46-5.46Z" style="fill:#ebebeb"></path><rect x="65.58" y="275.14" width="18.34" height="105.06" style="fill:#e6e6e6"></rect><rect x="76.87" y="275.14" width="219.59" height="105.06" style="fill:#f0f0f0"></rect><polygon points="81.8 380.2 88.41 380.2 286.98 380.2 286.98 382.4 88.41 382.4 81.8 382.4 75.07 382.4 75.07 380.2 81.8 380.2" style="fill:#e0e0e0"></polygon><rect x="83.14" y="281.71" width="207.06" height="42.39" style="fill:#fafafa;opacity:0.5"></rect><rect x="83.14" y="330.96" width="207.06" height="42.39" style="fill:#fafafa;opacity:0.5"></rect><path d="M258.81,302.91a4.66,4.66,0,1,0,4.66-4.66A4.66,4.66,0,0,0,258.81,302.91Z" style="fill:#e0e0e0"></path><path d="M105.21,302.91a4.66,4.66,0,1,0,4.66-4.66A4.66,4.66,0,0,0,105.21,302.91Z" style="fill:#e0e0e0"></path><path d="M258.81,352.15a4.66,4.66,0,1,0,4.66-4.66A4.66,4.66,0,0,0,258.81,352.15Z" style="fill:#e0e0e0"></path><path d="M105.21,352.15a4.66,4.66,0,1,0,4.66-4.66A4.65,4.65,0,0,0,105.21,352.15Z" style="fill:#e0e0e0"></path><rect x="65.58" y="76" width="184.05" height="145.15" style="fill:#ebebeb"></rect><rect x="67.56" y="76" width="186.3" height="145.15" style="fill:#f5f5f5"></rect><rect x="65.58" y="221.16" width="171.6" height="7.87" style="fill:#ebebeb"></rect><rect x="86.36" y="221.16" width="173.72" height="7.87" style="fill:#f0f0f0"></rect><rect x="94.06" y="61.36" width="133.3" height="174.45" transform="translate(309.29 -12.13) rotate(90)" style="fill:#fafafa"></rect><polygon points="86.27 215.23 136.87 81.93 160.75 81.93 110.16 215.23 86.27 215.23" style="fill:#fff"></polygon><path d="M76.23,182.22a.42.42,0,0,1-.42-.42v-96a.42.42,0,0,1,.42-.42.42.42,0,0,1,.42.42v96A.42.42,0,0,1,76.23,182.22Z" style="fill:#f0f0f0"></path><polygon points="115.28 215.23 165.88 81.93 175.19 81.93 124.6 215.23 115.28 215.23" style="fill:#fff"></polygon><polygon points="164.86 215.23 215.46 81.93 224.77 81.93 174.17 215.23 164.86 215.23" style="fill:#fff"></polygon><rect x="180.91" y="148.2" width="133.3" height="0.75" transform="translate(396.14 -98.98) rotate(90)" style="fill:#ebebeb"></rect><g style="opacity:0.7000000000000001"><polygon points="255.26 84.93 71.22 84.93 70.67 84.23 254.72 84.23 255.26 84.93" style="fill:#ebebeb"></polygon><polygon points="255.26 85.69 71.22 85.69 70.67 84.99 254.72 84.99 255.26 85.69" style="fill:#ebebeb"></polygon><polygon points="255.26 86.44 71.22 86.44 70.67 85.74 254.72 85.74 255.26 86.44" style="fill:#ebebeb"></polygon><polygon points="255.26 87.19 71.22 87.19 70.67 86.49 254.72 86.49 255.26 87.19" style="fill:#ebebeb"></polygon><polygon points="255.26 87.95 71.22 87.95 70.67 87.25 254.72 87.25 255.26 87.95" style="fill:#ebebeb"></polygon><polygon points="255.26 88.7 71.22 88.7 70.67 88 254.72 88 255.26 88.7" style="fill:#ebebeb"></polygon><polygon points="255.26 89.46 71.22 89.46 70.67 88.75 254.72 88.75 255.26 89.46" style="fill:#ebebeb"></polygon><polygon points="255.26 90.21 71.22 90.21 70.67 89.51 254.72 89.51 255.26 90.21" style="fill:#ebebeb"></polygon><polygon points="255.26 90.96 71.22 90.96 70.67 90.26 254.72 90.26 255.26 90.96" style="fill:#ebebeb"></polygon><polygon points="255.26 91.72 71.22 91.72 70.67 91.02 254.72 91.02 255.26 91.72" style="fill:#ebebeb"></polygon><polygon points="255.26 92.47 71.22 92.47 70.67 91.77 254.72 91.77 255.26 92.47" style="fill:#ebebeb"></polygon><polygon points="255.26 93.22 71.22 93.22 70.67 92.52 254.72 92.52 255.26 93.22" style="fill:#ebebeb"></polygon><polygon points="255.26 93.98 71.22 93.98 70.67 93.28 254.72 93.28 255.26 93.98" style="fill:#ebebeb"></polygon><polygon points="255.26 94.73 71.22 94.73 70.67 94.03 254.72 94.03 255.26 94.73" style="fill:#ebebeb"></polygon><polygon points="255.26 95.48 71.22 95.48 70.67 94.78 254.72 94.78 255.26 95.48" style="fill:#ebebeb"></polygon><polygon points="255.26 96.24 71.22 96.24 70.67 95.54 254.72 95.54 255.26 96.24" style="fill:#ebebeb"></polygon><polygon points="255.26 96.99 71.22 96.99 70.67 96.29 254.72 96.29 255.26 96.99" style="fill:#ebebeb"></polygon><polygon points="255.26 97.75 71.22 97.75 70.67 97.04 254.72 97.04 255.26 97.75" style="fill:#ebebeb"></polygon><polygon points="255.26 98.5 71.22 98.5 70.67 97.8 254.72 97.8 255.26 98.5" style="fill:#ebebeb"></polygon><polygon points="255.26 99.25 71.22 99.25 70.67 98.55 254.72 98.55 255.26 99.25" style="fill:#ebebeb"></polygon><polygon points="255.26 100.01 71.22 100.01 70.67 99.31 254.72 99.31 255.26 100.01" style="fill:#ebebeb"></polygon><polygon points="255.26 100.76 71.22 100.76 70.67 100.06 254.72 100.06 255.26 100.76" style="fill:#ebebeb"></polygon><polygon points="255.26 101.51 71.22 101.51 70.67 100.81 254.72 100.81 255.26 101.51" style="fill:#ebebeb"></polygon><polygon points="255.26 102.27 71.22 102.27 70.67 101.57 254.72 101.57 255.26 102.27" style="fill:#ebebeb"></polygon></g><rect x="320.59" y="169.09" width="36.3" height="213.31" style="fill:#e0e0e0"></rect><polygon points="419.64 382.4 333.2 382.4 317.67 161 404.11 161 419.64 382.4" style="fill:#e6e6e6"></polygon><polygon points="428.36 382.4 335.55 382.4 320.02 161 412.83 161 428.36 382.4" style="fill:#f5f5f5"></polygon><polygon points="351.13 365.64 337.95 177.75 397.25 177.75 410.43 365.64 351.13 365.64" style="fill:#fff"></polygon><circle cx="362.02" cy="107.67" r="28.5" style="fill:#e0e0e0"></circle><circle cx="363.13" cy="107.67" r="28.5" style="fill:#ebebeb"></circle><circle cx="363.13" cy="107.67" r="24.44" transform="translate(30.23 288.31) rotate(-45)" style="fill:#fafafa"></circle><polygon points="362.97 108.24 351.98 95.82 352.73 95.15 363.29 107.1 376.76 103.08 377.05 104.03 362.97 108.24" style="fill:#ebebeb"></polygon></g><g id="freepik--Shadow--inject-2"><ellipse id="freepik--path--inject-2" cx="250" cy="416.24" rx="193.89" ry="11.32" style="fill:#f5f5f5"></ellipse></g><g id="freepik--Character--inject-2"><polygon points="250.56 358.39 256.48 365.95 277.2 336.98 265.81 330.97 250.56 358.39" style="fill:#7f3e3b"></polygon><path d="M257.86,363.42l-5.39-8.88a.74.74,0,0,0-.92-.32L244,357.36a1.46,1.46,0,0,0-.62,2.09c1.94,3.07,3,4.45,5.4,8.36,1.46,2.4,3.34,6.06,5.36,9.38s5.37,1.55,4.82,0c-2.44-7-1.22-9-.75-12.17A2.41,2.41,0,0,0,257.86,363.42Z" style="fill:#263238"></path><path d="M273.18,207.21s25.05,66.23,22.19,90.45c-2,17.17-18.45,40.17-18.45,40.17l-13.27-5.48s6.68-20.5,11.89-32.69c2.33-34-39.29-71.9-29.79-92.45Z" style="fill:#263238"></path><polygon points="261.5 332.92 277.45 339.82 280.95 336.02 263.38 327.35 261.5 332.92" style="fill:#407BFF"></polygon><path d="M259.6,368.23a1.25,1.25,0,0,0,1-.31.72.72,0,0,0,.29-.68c-.15-1.16-3.14-2.65-3.48-2.82a.24.24,0,0,0-.23,0,.23.23,0,0,0-.07.23c.39,1.17,1.19,3.18,2.31,3.52Zm-1.86-3.18c1.18.63,2.68,1.62,2.76,2.24a.3.3,0,0,1-.14.29.78.78,0,0,1-.77.2C259,367.6,258.31,366.59,257.74,365.05Z" style="fill:#407BFF"></path><path d="M258.73,365.28a3.8,3.8,0,0,0,2.74-.24.75.75,0,0,0,.13-.94,1.16,1.16,0,0,0-.72-.65c-1.27-.4-3.54.92-3.63,1a.21.21,0,0,0-.11.19.24.24,0,0,0,.11.19A5.74,5.74,0,0,0,258.73,365.28Zm1.88-1.45.14,0a.71.71,0,0,1,.46.4c.12.26,0,.37,0,.44-.47.43-2.28.29-3.33-.11A5.45,5.45,0,0,1,260.61,363.83Z" style="fill:#407BFF"></path><path d="M277.84,156.61c1.69,2.12,3.58,4.4,5.47,6.52s3.82,4.28,5.83,6.32a104.92,104.92,0,0,0,12.69,11.19l.84.62.36.26s0,0,.05,0a.81.81,0,0,0,.47.16,6.25,6.25,0,0,0,2.63-.49,31.73,31.73,0,0,0,6.8-3.89,80.11,80.11,0,0,0,6.66-5.33c2.17-1.88,4.33-3.9,6.38-5.88l.06-.06a2.33,2.33,0,0,1,3.52,3,85.66,85.66,0,0,1-12.15,13.81,35.47,35.47,0,0,1-8.15,5.63,14.12,14.12,0,0,1-6,1.47,9.51,9.51,0,0,1-3.84-.81,10,10,0,0,1-.92-.48l-.32-.2-.25-.16-1-.64a76.3,76.3,0,0,1-7.56-5.52c-2.42-1.95-4.67-4-6.88-6.17s-4.32-4.34-6.35-6.63-4-4.57-5.89-7.15a4.69,4.69,0,0,1,7.42-5.73Z" style="fill:#7f3e3b"></path><path d="M325.61,166.63l5.49-7.37,2.19,9.11s-4.35,3.9-8,2.57Z" style="fill:#7f3e3b"></path><polygon points="335.64 157.62 338.14 164.49 333.29 168.37 331.1 159.26 335.64 157.62" style="fill:#7f3e3b"></polygon><polygon points="237.59 405.53 246.76 405.3 248.42 372.99 235.69 373.94 237.59 405.53" style="fill:#7f3e3b"></polygon><path d="M247.06,403l-10.31-2a.57.57,0,0,0-.72.49l-1,7.38a1.91,1.91,0,0,0,1.51,1.92,27,27,0,0,1,8.56,2.44c2.61,1.13,7.35,3,11.27,3s3.25-3.8,1.54-4.11c-7.68-1.39-6.87-5.75-9.34-8.25A3,3,0,0,0,247.06,403Z" style="fill:#263238"></path><path d="M279,156.07c.49,5.77.14,19.33-4.47,51.14H237.29c.33-14.06.22-23.13-6-49.16a6.24,6.24,0,0,1,5.14-7.68c2.66-.38,5.84-.75,9.06-.9a119.3,119.3,0,0,1,16.92,0c4.36.4,9.07,1.16,12.15,1.71A5.44,5.44,0,0,1,279,156.07Z" style="fill:#263238"></path><path d="M263.7,171.61a.46.46,0,0,1-.23-.06,46.55,46.55,0,0,1-20.93-21.74.51.51,0,0,1,.29-.65.5.5,0,0,1,.65.29,45.45,45.45,0,0,0,20,21C270.7,156.9,265,150,265,150a.5.5,0,0,1,.76-.65c.26.3,6.35,7.58-1.57,22A.52.52,0,0,1,263.7,171.61Z" style="fill:#fff"></path><path d="M238.31,107.49c-.33-4.89,6.1-11.87,13.26-10.74,7.38,1.15,20.57,7.78,26.52.75,0,0,.05,11.24-6.95,13.91,2.95,2,11,1.5,12.84-1.25-.12,8.22-8.38,13.18-16.64,12.48S254,141,241.67,134,227,108.05,238.31,107.49Z" style="fill:#263238"></path><path d="M265.55,121.36,260.21,130c7.6,1.73,16.11-1.18,17.52-7.89C275.58,124.12,268,123.45,265.55,121.36Z" style="fill:#263238"></path><path d="M245,131.49l6.36-1c-.87,4.85-4.65,9.09-8.91,8.26C244.1,138,245.58,133.41,245,131.49Z" style="fill:#263238"></path><path d="M246.47,135.66l4-1.63c.18,3.33-1.66,6.71-4.59,6.82C246.91,140.09,247.18,136.83,246.47,135.66Z" style="fill:#263238"></path><path d="M246.82,130.41c1.16,5.45,2.4,15.42-1.34,19.06a66.07,66.07,0,0,0,16.64,12.58c5.14-8.56.28-12.58.28-12.58-6.09-1.45-6-6-5-10.19Z" style="fill:#7f3e3b"></path><path d="M251.12,134l6.24,5.25a16.54,16.54,0,0,0-.47,3c-2.32-.33-5.56-2.88-5.85-5.31A8.14,8.14,0,0,1,251.12,134Z" style="opacity:0.2"></path><path d="M240.21,121.75c2.82,8.68,3.83,12.41,9.46,15.87,8.47,5.19,18.52,0,18.36-9.27-.15-8.37-4.73-21.17-14.28-22.6A12.21,12.21,0,0,0,240.21,121.75Z" style="fill:#7f3e3b"></path><path d="M241.92,115.83c7.48.06,12.24-8.92,21.05-5.28-2.54-5.5-8.11-9.67-14.05-7.17S231.56,115.73,241.92,115.83Z" style="fill:#263238"></path><path d="M243.87,127.7c4,2.16,1.61-13.87-3-17.15C234,118.55,238.54,124.86,243.87,127.7Z" style="fill:#263238"></path><path d="M263,234.41c-5.42-7.88-7.11-2.71-7.08,6.93.6,2.14,1.23,4.38,1.87,6.7a0,0,0,0,1,0,0c5.29,9.66,10.93,19.92,14.42,30.22C272.26,263.38,270.51,245.36,263,234.41Z" style="opacity:0.2"></path><path d="M264.72,207.21s-3.88,71.39-6.85,95.59c-3.53,28.74-8.58,69.25-8.58,69.25l-14.89,2.33s-3.93-51.33-.28-66.69c7.77-32.78-6.34-79.93,3.17-100.48Z" style="fill:#263238"></path><polygon points="232.44 376.74 249.61 375.23 250.81 368.9 231.38 369.6 232.44 376.74" style="fill:#407BFF"></polygon><path d="M261.1,120.77a20,20,0,0,0,3.75,4,3.13,3.13,0,0,1-2.44,1.1Z" style="fill:#630f0f"></path><path d="M258.82,129.48a6.24,6.24,0,0,0,1.23-.19.21.21,0,0,0,.16-.26.23.23,0,0,0-.27-.16,6,6,0,0,1-5.22-1.11.22.22,0,1,0-.29.32A6.22,6.22,0,0,0,258.82,129.48Z" style="fill:#263238"></path><path d="M239.16,128.41a6.83,6.83,0,0,0,3.88,3.35c2.23.74,3.43-1.21,2.87-3.35-.5-1.93-2.26-4.64-4.54-4.44S238.19,126.47,239.16,128.41Z" style="fill:#7f3e3b"></path><path d="M249.92,118.27a.41.41,0,0,0,.29-.19,3.4,3.4,0,0,1,2.65-1.64.44.44,0,0,0,.43-.44.45.45,0,0,0-.45-.43,4.25,4.25,0,0,0-3.37,2,.44.44,0,0,0,.45.66Z" style="fill:#263238"></path><path d="M257.44,120.74a.34.34,0,0,0-.26.05,2.63,2.63,0,0,1-2.36.41.31.31,0,0,0-.42.19.33.33,0,0,0,.19.43,3.27,3.27,0,0,0,3-.48.35.35,0,0,0,.08-.47A.39.39,0,0,0,257.44,120.74Z" style="fill:#263238"></path><path d="M265,119a.35.35,0,0,0-.26.06,2.59,2.59,0,0,1-2.35.4.34.34,0,0,0-.43.19.33.33,0,0,0,.19.43,3.22,3.22,0,0,0,3-.48.33.33,0,0,0,.07-.46A.38.38,0,0,0,265,119Z" style="fill:#263238"></path><path d="M265,114.44a.39.39,0,0,0,.29-.13.43.43,0,0,0,0-.62,4.38,4.38,0,0,0-3.83-1.14.43.43,0,0,0-.31.52.45.45,0,0,0,.54.32,3.49,3.49,0,0,1,3,.94A.43.43,0,0,0,265,114.44Z" style="fill:#263238"></path><path d="M237.56,162.8c-2,2.23-3.95,4.21-6,6.23s-4.21,3.9-6.41,5.76a71.07,71.07,0,0,1-14.72,9.92c-.72.32-1.43.64-2.19.93-.37.15-.74.29-1.14.42l-.58.19-.3.1-.5.14a9.74,9.74,0,0,1-3.59.15,15.1,15.1,0,0,1-2.7-.63,38.14,38.14,0,0,1-8.29-4.1A94.09,94.09,0,0,1,177.6,171.3a2.33,2.33,0,0,1,2.8-3.7l.06,0c4.66,2.81,9.43,5.63,14.21,7.91a35.86,35.86,0,0,0,6.93,2.65,9.36,9.36,0,0,0,1.38.19c.38,0,.63,0,.55-.06s-.05,0,0,0l.2-.08.39-.16c.27-.1.53-.22.8-.35.53-.23,1.07-.52,1.61-.79a73.78,73.78,0,0,0,12.53-9.2c2-1.76,3.95-3.63,5.9-5.49s3.85-3.85,5.63-5.72l.06-.06a4.69,4.69,0,0,1,6.91,6.34Z" style="fill:#7f3e3b"></path><path d="M252.07,405a1.11,1.11,0,0,0,.24-1,1,1,0,0,0-.45-.7c-1.08-.69-3.82.59-4.13.74a.17.17,0,0,0-.09.2.27.27,0,0,0,.17.2c1.19.51,3.32,1.28,4.17.65Zm-3.65-.76c1.11-.47,2.7-.95,3.27-.58a.4.4,0,0,1,.19.31.69.69,0,0,1-.21.73C251.22,405,250,404.86,248.42,404.24Z" style="fill:#407BFF"></path><path d="M249.09,403.63a3,3,0,0,0,1.12-2.27,1,1,0,0,0-.75-.75,1,1,0,0,0-.91.12c-1,.69-.92,3.35-.91,3.46a.26.26,0,0,0,.11.21.23.23,0,0,0,.22,0A3.68,3.68,0,0,0,249.09,403.63Zm-.34-2.44.1-.08a.63.63,0,0,1,.57-.08c.28.09.34.23.37.33.14.66-.86,2-1.72,2.49A4.79,4.79,0,0,1,248.75,401.19Z" style="fill:#407BFF"></path><path d="M236.69,205l-.89,3.34c-.13.26.18.52.61.52h38.36c.34,0,.62-.17.63-.38l.28-3.33c0-.23-.28-.43-.64-.43H237.29A.66.66,0,0,0,236.69,205Z" style="fill:#407BFF"></path><path d="M241.84,209.24h-1c-.21,0-.36-.1-.35-.23l.4-4.33c0-.13.18-.24.38-.24h1c.21,0,.36.11.35.24l-.4,4.33C242.21,209.14,242,209.24,241.84,209.24Z" style="fill:#263238"></path><path d="M271.94,209.24h-1c-.2,0-.36-.1-.35-.23l.4-4.33c0-.13.19-.24.39-.24h1c.2,0,.36.11.34.24l-.39,4.33C272.32,209.14,272.14,209.24,271.94,209.24Z" style="fill:#263238"></path><path d="M256.89,209.24h-1c-.2,0-.36-.1-.35-.23l.4-4.33c0-.13.18-.24.39-.24h1c.2,0,.35.11.34.24l-.39,4.33C257.26,209.14,257.09,209.24,256.89,209.24Z" style="fill:#263238"></path><path d="M181.32,168.07l-4.92-8.69-3.21,8.71s3.88,4.51,7.59,3.72Z" style="fill:#7f3e3b"></path><polygon points="169.25 156.34 166.96 163.79 174.26 169.16 176.4 159.38 169.25 156.34" style="fill:#7f3e3b"></polygon></g><g id="freepik--Icons--inject-2"><path d="M334.85,146.45l-7-2.89-.26-2.63a16.37,16.37,0,0,1-1.82-1.81l-2.62-.26-2.89-7,1.68-2a15.87,15.87,0,0,1,0-2.58l-1.68-2,2.89-7,2.62-.25a17.37,17.37,0,0,1,1.82-1.82l.26-2.62,7-2.89,2,1.68a15.87,15.87,0,0,1,2.58,0l2-1.68,7,2.89.25,2.62a17.37,17.37,0,0,1,1.82,1.82l2.62.25,2.89,7-1.68,2a15.87,15.87,0,0,1,0,2.58l1.68,2-2.89,7-2.62.26a15.64,15.64,0,0,1-1.82,1.82l-.25,2.62-7,2.89-2-1.68a15.75,15.75,0,0,1-2.57,0Zm5.08-3.23,1.82,1.5,5.31-2.2.22-2.34.25-.2a15.27,15.27,0,0,0,2.05-2l.19-.25,2.35-.22,2.2-5.31-1.5-1.82,0-.31a14.05,14.05,0,0,0,0-2.9l0-.31,1.5-1.82-2.2-5.31-2.34-.22-.2-.25a15.27,15.27,0,0,0-2.05-2l-.25-.2-.22-2.34-5.31-2.2-1.82,1.5-.31,0a14.05,14.05,0,0,0-2.9,0l-.31,0-1.82-1.5-5.31,2.2-.22,2.34-.24.2a14.78,14.78,0,0,0-2.06,2l-.2.25-2.34.22L322,125l1.5,1.82,0,.31a14.05,14.05,0,0,0,0,2.9l0,.31-1.5,1.82,2.2,5.31,2.34.22.2.24a14.19,14.19,0,0,0,2.05,2.05l.25.2.22,2.35,5.31,2.2,1.82-1.5.31,0a14.05,14.05,0,0,0,2.9,0Z" style="fill:#407BFF"></path><path d="M341.28,136.08a8.13,8.13,0,1,1,4.4-10.62A8.12,8.12,0,0,1,341.28,136.08Z" style="fill:#407BFF"></path><path d="M255.64,58.79a.75.75,0,0,1-.75-.75A17.67,17.67,0,0,1,272.53,40.4a.75.75,0,0,1,.75.75A17.66,17.66,0,0,1,255.64,58.79Zm16.12-16.87a16.16,16.16,0,0,0-15.35,15.35A16.15,16.15,0,0,0,271.76,41.92Z" style="fill:#407BFF"></path><path d="M260.59,46.86a.74.74,0,0,1-.75-.74,16.05,16.05,0,0,0-4.2-10.88,16.05,16.05,0,0,0-4.19,10.87.75.75,0,1,1-1.5,0,17.52,17.52,0,0,1,5.16-12.48.75.75,0,0,1,1.07,0,17.55,17.55,0,0,1,5.16,12.48A.76.76,0,0,1,260.59,46.86Z" style="fill:#407BFF"></path><path d="M255.64,58.79A17.65,17.65,0,0,1,238,41.15a.75.75,0,0,1,.75-.75A17.66,17.66,0,0,1,256.39,58,.74.74,0,0,1,255.64,58.79ZM239.52,41.92a16.16,16.16,0,0,0,15.36,15.35,16.14,16.14,0,0,0-15.36-15.35Z" style="fill:#407BFF"></path><path d="M176.78,141.31h-7.17a3.58,3.58,0,0,1-3.54-3l-.15-.84a17.19,17.19,0,0,0-3.24-7.44,12.82,12.82,0,0,1-2.51-8.07,13.19,13.19,0,0,1,12.65-12.64,13,13,0,0,1,11,20.6,18.05,18.05,0,0,0-3.32,7.56l-.14.83A3.58,3.58,0,0,1,176.78,141.31Zm-3.59-30.49h-.33A11.67,11.67,0,0,0,161.67,122a11.35,11.35,0,0,0,2.22,7.14,18.7,18.7,0,0,1,3.51,8.08l.15.84a2.08,2.08,0,0,0,2.06,1.75h7.17a2.09,2.09,0,0,0,2.06-1.75l.14-.83a19.68,19.68,0,0,1,3.58-8.19,11.51,11.51,0,0,0-9.37-18.22Z" style="fill:#407BFF"></path><path d="M178.57,144.48a1.09,1.09,0,0,0-1.08-1.09H168.9a1.09,1.09,0,1,0,0,2.17h.22a1,1,0,0,0-.27.65v.22a1,1,0,0,0,1,1h6.73a1,1,0,0,0,1-1v-.22a1,1,0,0,0-.26-.65h.22A1.09,1.09,0,0,0,178.57,144.48Z" style="fill:#407BFF"></path><path d="M175.13,140.93h0a.38.38,0,0,1-.36-.39,74.64,74.64,0,0,1,1.54-12.21l-.19,0a2.92,2.92,0,0,1-2.91-.72,2.78,2.78,0,0,1-2.78.73,73.32,73.32,0,0,1,1.52,12.16.37.37,0,0,1-.36.39.35.35,0,0,1-.39-.36,74.43,74.43,0,0,0-1.58-12.38c-2.33-.71-5-2.72-5.08-4.29,0-.43.17-1.2,1.51-1.52a2,2,0,0,1,1.76.4c1,.78,1.82,2.6,2.41,4.8l.29.06c.86.15,1.95.12,2.35-.87a.4.4,0,0,1,.7,0c.4,1,1.54,1,2.43.86a5,5,0,0,0,.53-.12c.59-2.16,1.37-4,2.4-4.73a2,2,0,0,1,1.75-.4c1.32.32,1.5,1.06,1.49,1.48,0,1.52-2.68,3.48-5,4.25a76.12,76.12,0,0,0-1.6,12.46A.37.37,0,0,1,175.13,140.93Zm-8.61-17.86a1.55,1.55,0,0,0-.31,0c-1,.23-.94.63-.94.77,0,1,2,2.68,4.1,3.45a7.86,7.86,0,0,0-2-4A1.31,1.31,0,0,0,166.52,123.07Zm13.65,0a1.31,1.31,0,0,0-.82.31,7.72,7.72,0,0,0-2,3.86c2.09-.81,4-2.46,4-3.4,0-.34-.3-.58-.91-.73A1.76,1.76,0,0,0,180.17,123.07Z" style="fill:#407BFF"></path><path d="M333.4,101.86a.89.89,0,0,1-.84-.6A81.35,81.35,0,0,0,283,51.67a.89.89,0,1,1,.6-1.68,83.08,83.08,0,0,1,50.68,50.67.88.88,0,0,1-.54,1.14A.8.8,0,0,1,333.4,101.86Z" style="fill:#407BFF"></path><path d="M177.89,101.88a.8.8,0,0,1-.3-.06.89.89,0,0,1-.55-1.14A83.06,83.06,0,0,1,227.73,50a.89.89,0,1,1,.6,1.68,81.29,81.29,0,0,0-49.6,49.6A.89.89,0,0,1,177.89,101.88Z" style="fill:#407BFF"></path></g></svg>